<svg width="115" height="56" viewBox="0 0 115 56" fill="none" xmlns="http://www.w3.org/2000/svg">
<path d="M30.8974 0C31.93 0 32.8861 0.0956108 33.7657 0.286832C34.6836 0.478054 35.5632 0.726643 36.4046 1.0326C37.246 1.33855 38.0874 1.66363 38.9287 2.00783C39.7701 2.35203 40.6689 2.65798 41.625 2.92569C40.9366 3.5376 40.2099 4.16863 39.445 4.81879C38.6801 5.4307 37.9344 6.08085 37.2077 6.76925C36.5193 7.45765 35.8692 8.20341 35.2573 9.00655C34.6836 9.77143 34.2056 10.5937 33.8231 11.4733C33.3642 12.6971 33.0391 13.9592 32.8479 15.2595C32.6567 16.5216 32.4654 17.7836 32.2742 19.0457C31.8153 22.22 31.3372 25.4707 30.8401 28.798C30.3429 32.1253 29.578 35.3378 28.5454 38.4356C27.5128 41.4951 26.0786 44.3443 24.2429 46.9832C22.4072 49.5838 19.9404 51.7637 16.8426 53.523C15.8483 54.0967 14.6436 54.5365 13.2285 54.8424C11.8135 55.1866 10.5323 55.3587 9.38496 55.3587C7.70221 55.3587 6.28717 55.0719 5.13984 54.4982C4.03075 53.9628 3.11289 53.217 2.38625 52.2609C1.6596 51.3048 1.14331 50.1766 0.83735 48.8763C0.531395 47.576 0.378418 46.1801 0.378418 44.6885C0.378418 42.9675 0.607884 41.4378 1.06682 40.0992C1.56399 38.7224 2.19503 37.4604 2.95991 36.313C3.76304 35.1274 4.66179 34.0184 5.65614 32.9858C6.68874 31.9149 7.75958 30.825 8.86867 29.7159C8.67744 28.8363 8.56271 27.9566 8.52447 27.077C8.52447 26.1974 8.52447 25.2604 8.52447 24.266C8.52447 21.2065 9.07901 18.2234 10.1881 15.3169C11.3354 12.4103 12.9034 9.8288 14.8922 7.57239C16.8809 5.27772 19.2329 3.44199 21.9482 2.0652C24.7018 0.688399 27.6849 0 30.8974 0ZM9.8439 25.6428C9.8439 26.2548 9.86302 26.8475 9.90126 27.4212C9.93951 27.9566 9.99687 28.5112 10.0734 29.0848C11.3354 28.3199 12.6549 27.6889 14.0317 27.1917C15.4467 26.6563 16.8809 26.3312 18.3341 26.2165L18.621 27.1344C17.6266 27.3256 16.3837 27.6507 14.8922 28.1096C13.4006 28.5685 11.8708 29.2952 10.3028 30.2895C10.647 31.7428 11.2016 33.1387 11.9665 34.4773C12.7313 35.7776 13.5345 37.0588 14.3759 38.3209L13.2859 38.7224C12.368 37.6133 11.584 36.4278 10.9339 35.1657C10.2837 33.9036 9.69092 32.6224 9.1555 31.3221C8.31412 32.087 7.47275 33.1005 6.63137 34.3626C5.79 35.6246 5.02511 36.9823 4.33671 38.4356C3.68656 39.8506 3.15113 41.2848 2.73045 42.7381C2.30976 44.1914 2.09941 45.4917 2.09941 46.639C2.09941 48.8189 2.73045 50.5973 3.99251 51.9741C5.25457 53.3891 6.97557 54.0967 9.1555 54.0967C11.2972 54.0967 13.152 53.7142 14.7201 52.9493C16.3263 52.1844 17.684 51.1518 18.7931 49.8515C19.9404 48.5512 20.8965 47.0406 21.6614 45.3196C22.4263 43.5603 23.0764 41.7055 23.6119 39.755C24.1473 37.7663 24.5871 35.7394 24.9313 33.6742C25.3137 31.5707 25.6771 29.5438 26.0213 27.5933C26.3655 25.6046 26.7288 23.7306 27.1112 21.9714C27.4937 20.1739 27.9526 18.6059 28.488 17.2673C29.3676 15.0492 30.4385 13.0796 31.7005 11.3586C32.9626 9.59934 34.4159 7.85922 36.0604 6.13822C34.8366 5.22036 33.4215 4.58932 31.8153 4.24512C30.2473 3.90092 28.7175 3.72883 27.226 3.72883C24.2811 3.72883 21.7188 4.37898 19.5388 5.67929C17.3589 6.9796 15.5423 8.68147 14.089 10.7849C12.674 12.8884 11.6031 15.2404 10.8765 17.841C10.1881 20.4416 9.8439 23.0422 9.8439 25.6428Z" fill="white"/>
<path d="M42.1941 31.3795C41.391 31.3795 40.76 31.1309 40.301 30.6337C39.8804 30.1366 39.67 29.5055 39.67 28.7406C39.67 27.9375 39.9186 27.23 40.4158 26.6181C40.913 26.0062 41.5822 25.7002 42.4236 25.7002C43.1885 25.7002 43.8387 25.9488 44.3741 26.446C44.9095 26.9049 45.1772 27.5168 45.1772 28.2817C45.1772 29.1231 44.8904 29.8497 44.3167 30.4616C43.7813 31.0735 43.0738 31.3795 42.1941 31.3795ZM40.1863 36.8293C41.0659 36.8293 41.7161 37.1926 42.1368 37.9193C42.5575 38.6077 42.7678 39.3152 42.7678 40.0418C42.7678 40.8067 42.5957 41.5907 42.2515 42.3939C41.9456 43.197 41.6014 44.0193 41.2189 44.8606C40.8747 45.6638 40.5305 46.4669 40.1863 47.27C39.8804 48.0732 39.7274 48.838 39.7274 49.5647C39.7274 49.7177 39.7465 49.928 39.7848 50.1957C39.823 50.4252 39.9569 50.5399 40.1863 50.5399C40.4923 50.5399 40.7791 50.4443 41.0468 50.2531C41.3528 50.0236 41.6205 49.775 41.8499 49.5073C42.0794 49.2014 42.2898 48.8954 42.481 48.5895C42.6722 48.2453 42.8252 47.9776 42.9399 47.7863L44.0299 48.3026C43.418 49.297 42.7487 50.1766 42.022 50.9415C41.2954 51.6681 40.3202 52.0315 39.0964 52.0315C38.2932 52.0315 37.5092 51.802 36.7443 51.3431C35.9794 50.8841 35.597 50.234 35.597 49.3926C35.597 48.7424 35.8265 47.8628 36.2854 46.7537C36.7443 45.6064 37.2224 44.4973 37.7196 43.4265C38.2167 42.3174 38.5992 41.3613 38.8669 40.5581C39.1346 39.7168 39.0964 39.2961 38.7522 39.2961C38.408 39.2961 38.1211 39.3343 37.8917 39.4108C37.6622 39.4491 37.4136 39.5638 37.1459 39.755C36.9164 39.908 36.6296 40.1566 36.2854 40.5008C35.9412 40.8067 35.5014 41.2274 34.966 41.7628L34.2776 40.9597C34.5453 40.6155 34.9086 40.2139 35.3675 39.755C35.8647 39.2578 36.4001 38.7989 36.9738 38.3782C37.5475 37.9193 38.102 37.556 38.6374 37.2883C39.2111 36.9823 39.7274 36.8293 40.1863 36.8293Z" fill="white"/>
<path d="M76.0902 47.4421C75.746 47.9393 75.4018 48.4365 75.0576 48.9337C74.7134 49.4308 74.3309 49.8898 73.9102 50.3105C73.4895 50.6929 73.0306 51.018 72.5334 51.2857C72.0363 51.5152 71.4626 51.6299 70.8124 51.6299C70.43 51.6299 70.0475 51.6108 69.6651 51.5725C69.2827 51.5725 68.9385 51.496 68.6325 51.3431C68.3648 51.2283 68.1353 51.0371 67.9441 50.7694C67.7911 50.5017 67.7338 50.1192 67.772 49.6221C67.8102 49.0484 67.925 48.3791 68.1162 47.6142C68.3457 46.8111 68.5751 46.008 68.8046 45.2048C69.0723 44.3635 69.3018 43.5412 69.493 42.7381C69.7225 41.9349 69.8563 41.2274 69.8946 40.6155C69.8946 40.4625 69.8754 40.3287 69.8372 40.2139C69.8372 40.061 69.7416 39.9845 69.5504 39.9845C69.3209 39.9845 68.9193 40.2331 68.3457 40.7302C67.8103 41.1892 67.2366 41.7246 66.6247 42.3365C66.051 42.9102 65.4965 43.4838 64.961 44.0575C64.4639 44.6312 64.1388 45.0136 63.9858 45.2048C63.7181 45.549 63.4886 45.9888 63.2974 46.5243C63.1444 47.0597 63.0106 47.6142 62.8958 48.1879C62.7811 48.7616 62.6855 49.3352 62.609 49.9089C62.5325 50.4443 62.456 50.9224 62.3795 51.3431H57.7902C57.9432 50.5017 58.1535 49.6412 58.4213 48.7616C58.689 47.8437 58.9567 46.9258 59.2244 46.008C59.4921 45.0901 59.7024 44.1722 59.8554 43.2544C60.0466 42.3365 60.1423 41.4569 60.1423 40.6155C60.1423 40.5008 60.104 40.386 60.0275 40.2713C59.9893 40.1183 59.8745 40.0418 59.6833 40.0418C58.9949 40.0418 58.2492 40.5199 57.446 41.476C56.6811 42.4321 55.9545 43.5603 55.2661 44.8606C54.5777 46.1227 53.9658 47.3848 53.4304 48.6468C52.8949 49.8707 52.5507 50.7694 52.3978 51.3431H48.6116C48.6881 50.9989 48.841 50.2913 49.0705 49.2205C49.3382 48.1114 49.6059 46.9641 49.8736 45.7785C50.1796 44.5547 50.4282 43.4456 50.6194 42.4512C50.8489 41.4569 50.9636 40.8641 50.9636 40.6729C50.9636 40.3669 50.9254 40.2139 50.8489 40.2139C50.6959 40.2139 50.4856 40.3478 50.2178 40.6155C49.9884 40.845 49.7207 41.1318 49.4147 41.476C49.147 41.782 48.8984 42.0879 48.6689 42.3939C48.4395 42.6998 48.2674 42.9293 48.1526 43.0823L47.4069 42.3365C47.7511 41.8776 48.1335 41.3804 48.5542 40.845C49.0131 40.2713 49.4912 39.755 49.9884 39.2961C50.4856 38.7989 51.021 38.3973 51.5946 38.0914C52.1683 37.7854 52.7802 37.6325 53.4304 37.6325C54.0805 37.6325 54.5012 37.8237 54.6924 38.2061C54.8837 38.5503 54.9793 38.9901 54.9793 39.5255C54.9793 40.2139 54.9028 40.8832 54.7498 41.5334C54.6351 42.1835 54.5203 42.8337 54.4056 43.4838C54.8645 42.8719 55.3426 42.2409 55.8398 41.5907C56.3752 40.9406 56.9489 40.3478 57.5608 39.8124C58.1727 39.277 58.8228 38.8372 59.5112 38.493C60.2379 38.1488 61.041 37.9767 61.9206 37.9767C62.6855 37.9767 63.2974 38.1679 63.7563 38.5503C64.2535 38.9328 64.5021 39.5447 64.5021 40.386C64.5021 40.8832 64.4447 41.3804 64.33 41.8776C64.2153 42.3365 64.1197 42.8146 64.0432 43.3117C64.4256 42.9293 64.9228 42.4321 65.5347 41.8202C66.1466 41.2083 66.7968 40.6155 67.4852 40.0418C68.2118 39.4682 68.9385 38.9901 69.6651 38.6077C70.3917 38.187 71.0419 37.9767 71.6156 37.9767C71.8833 37.9767 72.1701 37.9958 72.4761 38.034C72.8203 38.034 73.1262 38.0914 73.3939 38.2061C73.6999 38.3209 73.9485 38.493 74.1397 38.7224C74.3309 38.9136 74.4265 39.2005 74.4265 39.5829C74.4265 40.1183 74.3118 40.8067 74.0823 41.6481C73.8529 42.4895 73.6043 43.3691 73.3366 44.287C73.0689 45.2048 72.8011 46.0845 72.5334 46.9258C72.2657 47.7672 72.1127 48.4747 72.0745 49.0484C72.0745 49.4308 72.2466 49.6221 72.5908 49.6221C73.088 49.6221 73.5851 49.3161 74.0823 48.7042C74.6177 48.054 75.0576 47.4613 75.4018 46.9258L76.0902 47.4421Z" fill="white"/>
<path d="M86.9763 37.1735C88.1237 37.1353 89.1563 37.25 90.0741 37.5177C90.992 37.7472 91.7569 38.1488 92.3688 38.7224C92.9807 39.2961 93.4205 40.061 93.6882 41.0171C93.9559 41.9349 94.0133 43.0823 93.8603 44.4591C93.6691 45.9124 93.3249 47.1171 92.8277 48.0732C92.3306 48.991 91.6995 49.7177 90.9346 50.2531C90.1698 50.7885 89.271 51.1518 88.2384 51.3431C87.2441 51.5725 86.1732 51.6873 85.0259 51.6873C83.1137 51.6873 81.5839 51.1327 80.4366 50.0236C79.3275 48.9145 78.7729 47.3848 78.7729 45.4343C78.7729 44.0575 78.9833 42.8719 79.404 41.8776C79.8629 40.845 80.4748 39.9845 81.2397 39.2961C82.0046 38.6077 82.8651 38.0914 83.8212 37.7472C84.8155 37.403 85.8673 37.2118 86.9763 37.1735ZM83.0181 46.5243C83.0181 47.0214 83.0372 47.5186 83.0754 48.0158C83.1519 48.4747 83.2666 48.8954 83.4196 49.2779C83.6108 49.6603 83.8786 49.9663 84.2228 50.1957C84.567 50.4252 85.045 50.5399 85.6569 50.5399C86.4218 50.6164 87.0528 50.3487 87.55 49.7368C88.0854 49.1249 88.5061 48.3791 88.8121 47.4995C89.1563 46.6199 89.3857 45.702 89.5005 44.7459C89.6535 43.7898 89.7299 42.9867 89.7299 42.3365C89.7299 41.1509 89.5387 40.1948 89.1563 39.4682C88.7738 38.7415 88.1046 38.4165 87.1484 38.493C86.3453 38.5312 85.676 38.8563 85.1406 39.4682C84.6434 40.0418 84.2228 40.7494 83.8786 41.5907C83.5726 42.4321 83.3431 43.3117 83.1902 44.2296C83.0754 45.1475 83.0181 45.9124 83.0181 46.5243Z" fill="white"/>
<path d="M102.645 44.1149C102.989 43.503 103.429 42.8337 103.964 42.107C104.5 41.3422 105.112 40.6346 105.8 39.9845C106.489 39.3343 107.234 38.7798 108.037 38.3209C108.841 37.8619 109.663 37.6325 110.504 37.6325C111.231 37.6325 111.747 37.8428 112.053 38.2635C112.359 38.6459 112.512 39.1813 112.512 39.8697C112.55 40.5199 112.474 41.2465 112.283 42.0497C112.091 42.8528 111.881 43.6751 111.652 44.5164C111.422 45.3196 111.212 46.0845 111.021 46.8111C110.829 47.5377 110.734 48.1305 110.734 48.5895C110.734 48.6277 110.753 48.7616 110.791 48.991C110.829 49.2205 111.021 49.3352 111.365 49.3352C112.091 49.3352 112.627 49.1249 112.971 48.7042C113.353 48.2835 113.698 47.8628 114.004 47.4421L114.463 48.1305C113.965 49.0866 113.22 49.8706 112.225 50.4826C111.269 51.0562 110.179 51.3431 108.955 51.3431C108.19 51.3431 107.655 51.1327 107.349 50.712C107.043 50.2531 106.871 49.6794 106.833 48.991C106.795 48.3026 106.871 47.5377 107.062 46.6964C107.253 45.855 107.464 45.0327 107.693 44.2296C107.923 43.4265 108.133 42.6807 108.324 41.9923C108.516 41.2657 108.611 40.7111 108.611 40.3287C108.611 40.2522 108.592 40.1183 108.554 39.9271C108.554 39.7359 108.458 39.6403 108.267 39.6403C107.77 39.6403 107.273 39.8697 106.775 40.3287C106.278 40.7876 105.781 41.3804 105.284 42.107C104.787 42.8337 104.29 43.6559 103.792 44.5738C103.333 45.4534 102.913 46.333 102.53 47.2127C102.148 48.054 101.804 48.8572 101.498 49.6221C101.23 50.3487 101.02 50.9032 100.867 51.2857H97.2526C97.8645 47.9584 98.5529 44.6503 99.3178 41.3613C100.083 38.0723 100.867 34.7832 101.67 31.4942C102.511 28.2052 103.333 24.9162 104.137 21.6272C104.94 18.3382 105.685 15.0492 106.374 11.7601H110.332L102.645 44.1149Z" fill="white"/>
</svg>
